<mxfile host="Electron" agent="Mozilla/5.0 (X11; Linux x86_64) AppleWebKit/537.36 (KHTML, like Gecko) draw.io/26.0.16 Chrome/132.0.6834.196 Electron/34.2.0 Safari/537.36" version="26.0.16">
  <diagram name="Page-1" id="JUHUudK0kC2S-_18Kmyk">
    <mxGraphModel dx="1793" dy="1054" grid="1" gridSize="10" guides="1" tooltips="1" connect="1" arrows="1" fold="1" page="1" pageScale="1" pageWidth="1169" pageHeight="827" math="1" shadow="0">
      <root>
        <mxCell id="0" />
        <mxCell id="1" parent="0" />
        <mxCell id="dpyUN3_mg6OHSvx2SakS-62" value="" style="rounded=0;whiteSpace=wrap;html=1;dashed=1;dashPattern=8 8;strokeWidth=2;" vertex="1" parent="1">
          <mxGeometry x="640" y="150" width="380" height="160" as="geometry" />
        </mxCell>
        <mxCell id="dpyUN3_mg6OHSvx2SakS-25" value="" style="rounded=0;whiteSpace=wrap;html=1;strokeWidth=2;perimeterSpacing=1;dashed=1;dashPattern=8 8;" vertex="1" parent="1">
          <mxGeometry x="150" y="150" width="430" height="290" as="geometry" />
        </mxCell>
        <mxCell id="dpyUN3_mg6OHSvx2SakS-4" value="" style="group" vertex="1" connectable="0" parent="1">
          <mxGeometry x="40" y="190" width="70" height="60" as="geometry" />
        </mxCell>
        <mxCell id="dpyUN3_mg6OHSvx2SakS-1" value="" style="pointerEvents=1;verticalLabelPosition=bottom;shadow=0;dashed=0;align=center;html=1;verticalAlign=top;shape=mxgraph.electrical.waveforms.sine_wave;strokeWidth=2;" vertex="1" parent="dpyUN3_mg6OHSvx2SakS-4">
          <mxGeometry width="23.333333333333332" height="60" as="geometry" />
        </mxCell>
        <mxCell id="dpyUN3_mg6OHSvx2SakS-2" value="" style="pointerEvents=1;verticalLabelPosition=bottom;shadow=0;dashed=0;align=center;html=1;verticalAlign=top;shape=mxgraph.electrical.waveforms.sine_wave;strokeWidth=2;" vertex="1" parent="dpyUN3_mg6OHSvx2SakS-4">
          <mxGeometry x="23.333333333333332" width="23.333333333333332" height="60" as="geometry" />
        </mxCell>
        <mxCell id="dpyUN3_mg6OHSvx2SakS-11" style="edgeStyle=orthogonalEdgeStyle;rounded=0;orthogonalLoop=1;jettySize=auto;html=1;strokeWidth=2;" edge="1" parent="dpyUN3_mg6OHSvx2SakS-4" source="dpyUN3_mg6OHSvx2SakS-3">
          <mxGeometry relative="1" as="geometry">
            <mxPoint x="130" y="30" as="targetPoint" />
          </mxGeometry>
        </mxCell>
        <mxCell id="dpyUN3_mg6OHSvx2SakS-3" value="" style="pointerEvents=1;verticalLabelPosition=bottom;shadow=0;dashed=0;align=center;html=1;verticalAlign=top;shape=mxgraph.electrical.waveforms.sine_wave;strokeWidth=2;" vertex="1" parent="dpyUN3_mg6OHSvx2SakS-4">
          <mxGeometry x="46.666666666666664" width="23.333333333333332" height="60" as="geometry" />
        </mxCell>
        <mxCell id="dpyUN3_mg6OHSvx2SakS-5" value="&lt;font style=&quot;font-size: 14px;&quot;&gt;$$\text{Input Signal}$$&lt;/font&gt;" style="text;html=1;align=center;verticalAlign=middle;whiteSpace=wrap;rounded=0;" vertex="1" parent="1">
          <mxGeometry x="45" y="250" width="60" height="30" as="geometry" />
        </mxCell>
        <mxCell id="dpyUN3_mg6OHSvx2SakS-10" value="" style="group" vertex="1" connectable="0" parent="1">
          <mxGeometry x="170" y="190" width="63" height="63" as="geometry" />
        </mxCell>
        <mxCell id="dpyUN3_mg6OHSvx2SakS-7" value="" style="ellipse;whiteSpace=wrap;html=1;aspect=fixed;strokeWidth=2;" vertex="1" parent="dpyUN3_mg6OHSvx2SakS-10">
          <mxGeometry width="60" height="60" as="geometry" />
        </mxCell>
        <mxCell id="dpyUN3_mg6OHSvx2SakS-8" value="" style="endArrow=none;html=1;rounded=0;strokeWidth=2;exitX=0;exitY=1;exitDx=0;exitDy=0;entryX=1;entryY=0;entryDx=0;entryDy=0;" edge="1" parent="dpyUN3_mg6OHSvx2SakS-10" source="dpyUN3_mg6OHSvx2SakS-7" target="dpyUN3_mg6OHSvx2SakS-7">
          <mxGeometry width="50" height="50" relative="1" as="geometry">
            <mxPoint x="6.5" y="50" as="sourcePoint" />
            <mxPoint x="56.5" as="targetPoint" />
          </mxGeometry>
        </mxCell>
        <mxCell id="dpyUN3_mg6OHSvx2SakS-9" value="" style="endArrow=none;html=1;rounded=0;strokeWidth=2;exitX=0;exitY=0;exitDx=0;exitDy=0;entryX=1;entryY=1;entryDx=0;entryDy=0;" edge="1" parent="dpyUN3_mg6OHSvx2SakS-10" source="dpyUN3_mg6OHSvx2SakS-7" target="dpyUN3_mg6OHSvx2SakS-7">
          <mxGeometry width="50" height="50" relative="1" as="geometry">
            <mxPoint x="10" y="10" as="sourcePoint" />
            <mxPoint x="50" y="50" as="targetPoint" />
          </mxGeometry>
        </mxCell>
        <mxCell id="dpyUN3_mg6OHSvx2SakS-18" value="" style="group" vertex="1" connectable="0" parent="1">
          <mxGeometry x="330" y="181.5" width="80" height="80" as="geometry" />
        </mxCell>
        <mxCell id="dpyUN3_mg6OHSvx2SakS-16" value="" style="whiteSpace=wrap;html=1;aspect=fixed;strokeWidth=2;" vertex="1" parent="dpyUN3_mg6OHSvx2SakS-18">
          <mxGeometry width="76.26666666666667" height="76.26666666666667" as="geometry" />
        </mxCell>
        <mxCell id="dpyUN3_mg6OHSvx2SakS-17" value="" style="triangle;whiteSpace=wrap;html=1;strokeWidth=2;fillColor=#0050ef;fontColor=#ffffff;strokeColor=#001DBC;" vertex="1" parent="dpyUN3_mg6OHSvx2SakS-18">
          <mxGeometry x="15" y="15.000000000000002" width="50" height="50.00000000000001" as="geometry" />
        </mxCell>
        <mxCell id="dpyUN3_mg6OHSvx2SakS-19" value="" style="group" vertex="1" connectable="0" parent="1">
          <mxGeometry x="170" y="360" width="60" height="60" as="geometry" />
        </mxCell>
        <mxCell id="dpyUN3_mg6OHSvx2SakS-29" style="edgeStyle=orthogonalEdgeStyle;rounded=0;orthogonalLoop=1;jettySize=auto;html=1;exitX=0.5;exitY=0;exitDx=0;exitDy=0;strokeWidth=2;" edge="1" parent="dpyUN3_mg6OHSvx2SakS-19" source="dpyUN3_mg6OHSvx2SakS-13">
          <mxGeometry relative="1" as="geometry">
            <mxPoint x="30.235294117647072" y="-110" as="targetPoint" />
          </mxGeometry>
        </mxCell>
        <mxCell id="dpyUN3_mg6OHSvx2SakS-49" style="edgeStyle=orthogonalEdgeStyle;rounded=0;orthogonalLoop=1;jettySize=auto;html=1;strokeWidth=2;" edge="1" parent="dpyUN3_mg6OHSvx2SakS-19" target="dpyUN3_mg6OHSvx2SakS-13">
          <mxGeometry relative="1" as="geometry">
            <mxPoint x="480" y="30" as="sourcePoint" />
          </mxGeometry>
        </mxCell>
        <mxCell id="dpyUN3_mg6OHSvx2SakS-13" value="" style="ellipse;whiteSpace=wrap;html=1;aspect=fixed;strokeWidth=2;" vertex="1" parent="dpyUN3_mg6OHSvx2SakS-19">
          <mxGeometry width="60" height="60" as="geometry" />
        </mxCell>
        <mxCell id="dpyUN3_mg6OHSvx2SakS-14" value="" style="pointerEvents=1;verticalLabelPosition=bottom;shadow=0;dashed=0;align=center;html=1;verticalAlign=top;shape=mxgraph.electrical.waveforms.sine_wave;strokeWidth=2;" vertex="1" parent="dpyUN3_mg6OHSvx2SakS-19">
          <mxGeometry x="5" y="20" width="50" height="20" as="geometry" />
        </mxCell>
        <mxCell id="dpyUN3_mg6OHSvx2SakS-26" value="&lt;font style=&quot;font-size: 14px;&quot;&gt;&lt;b&gt;$$\textbf{Frequency Selection}$$&lt;/b&gt;&lt;/font&gt;" style="text;html=1;align=center;verticalAlign=middle;whiteSpace=wrap;rounded=0;" vertex="1" parent="1">
          <mxGeometry x="277.5" y="120" width="185" height="30" as="geometry" />
        </mxCell>
        <mxCell id="dpyUN3_mg6OHSvx2SakS-27" style="edgeStyle=orthogonalEdgeStyle;rounded=0;orthogonalLoop=1;jettySize=auto;html=1;entryX=0;entryY=0.5;entryDx=0;entryDy=0;strokeWidth=2;dashed=1;" edge="1" parent="1" source="dpyUN3_mg6OHSvx2SakS-7" target="dpyUN3_mg6OHSvx2SakS-16">
          <mxGeometry relative="1" as="geometry" />
        </mxCell>
        <mxCell id="dpyUN3_mg6OHSvx2SakS-28" style="edgeStyle=orthogonalEdgeStyle;rounded=0;orthogonalLoop=1;jettySize=auto;html=1;exitX=1;exitY=0.5;exitDx=0;exitDy=0;entryX=0;entryY=0.5;entryDx=0;entryDy=0;strokeWidth=2;dashed=1;" edge="1" parent="1" source="dpyUN3_mg6OHSvx2SakS-16" target="dpyUN3_mg6OHSvx2SakS-20">
          <mxGeometry relative="1" as="geometry" />
        </mxCell>
        <mxCell id="dpyUN3_mg6OHSvx2SakS-33" value="" style="group" vertex="1" connectable="0" parent="1">
          <mxGeometry x="470" y="180" width="80" height="80" as="geometry" />
        </mxCell>
        <mxCell id="dpyUN3_mg6OHSvx2SakS-20" value="" style="whiteSpace=wrap;html=1;aspect=fixed;strokeWidth=2;" vertex="1" parent="dpyUN3_mg6OHSvx2SakS-33">
          <mxGeometry width="80" height="80" as="geometry" />
        </mxCell>
        <mxCell id="dpyUN3_mg6OHSvx2SakS-21" value="" style="pointerEvents=1;verticalLabelPosition=bottom;shadow=0;dashed=0;align=center;html=1;verticalAlign=top;shape=mxgraph.electrical.waveforms.sine_wave;strokeWidth=2;" vertex="1" parent="dpyUN3_mg6OHSvx2SakS-33">
          <mxGeometry x="12.5" y="1.910000000000025" width="55" height="36.18" as="geometry" />
        </mxCell>
        <mxCell id="dpyUN3_mg6OHSvx2SakS-22" value="" style="pointerEvents=1;verticalLabelPosition=bottom;shadow=0;dashed=0;align=center;html=1;verticalAlign=top;shape=mxgraph.electrical.waveforms.sine_wave;strokeWidth=2;" vertex="1" parent="dpyUN3_mg6OHSvx2SakS-33">
          <mxGeometry x="12.5" y="38.089999999999975" width="55" height="36.18" as="geometry" />
        </mxCell>
        <mxCell id="dpyUN3_mg6OHSvx2SakS-23" value="" style="endArrow=none;html=1;rounded=0;strokeWidth=2;" edge="1" parent="dpyUN3_mg6OHSvx2SakS-33">
          <mxGeometry width="50" height="50" relative="1" as="geometry">
            <mxPoint x="30" y="66.17999999999995" as="sourcePoint" />
            <mxPoint x="50" y="46.17999999999995" as="targetPoint" />
          </mxGeometry>
        </mxCell>
        <mxCell id="dpyUN3_mg6OHSvx2SakS-47" value="" style="group" vertex="1" connectable="0" parent="1">
          <mxGeometry x="650" y="350" width="80" height="80" as="geometry" />
        </mxCell>
        <mxCell id="dpyUN3_mg6OHSvx2SakS-30" value="" style="whiteSpace=wrap;html=1;aspect=fixed;strokeWidth=2;" vertex="1" parent="dpyUN3_mg6OHSvx2SakS-47">
          <mxGeometry width="80" height="80" as="geometry" />
        </mxCell>
        <mxCell id="dpyUN3_mg6OHSvx2SakS-38" value="" style="group" vertex="1" connectable="0" parent="dpyUN3_mg6OHSvx2SakS-47">
          <mxGeometry y="20" width="80" height="30" as="geometry" />
        </mxCell>
        <mxCell id="dpyUN3_mg6OHSvx2SakS-31" value="" style="endArrow=none;html=1;rounded=0;strokeWidth=2;" edge="1" parent="dpyUN3_mg6OHSvx2SakS-38">
          <mxGeometry width="50" height="50" relative="1" as="geometry">
            <mxPoint x="30" y="30" as="sourcePoint" />
            <mxPoint x="55" as="targetPoint" />
          </mxGeometry>
        </mxCell>
        <mxCell id="dpyUN3_mg6OHSvx2SakS-34" value="" style="endArrow=none;html=1;rounded=0;strokeWidth=2;" edge="1" parent="dpyUN3_mg6OHSvx2SakS-38">
          <mxGeometry width="50" height="50" relative="1" as="geometry">
            <mxPoint y="30" as="sourcePoint" />
            <mxPoint x="30" y="30" as="targetPoint" />
          </mxGeometry>
        </mxCell>
        <mxCell id="dpyUN3_mg6OHSvx2SakS-36" value="" style="endArrow=none;html=1;rounded=0;strokeWidth=2;" edge="1" parent="dpyUN3_mg6OHSvx2SakS-38">
          <mxGeometry width="50" height="50" relative="1" as="geometry">
            <mxPoint x="55" y="30" as="sourcePoint" />
            <mxPoint x="80" y="30" as="targetPoint" />
          </mxGeometry>
        </mxCell>
        <mxCell id="dpyUN3_mg6OHSvx2SakS-37" value="" style="endArrow=none;html=1;rounded=0;strokeWidth=2;" edge="1" parent="dpyUN3_mg6OHSvx2SakS-38">
          <mxGeometry width="50" height="50" relative="1" as="geometry">
            <mxPoint x="55" y="30" as="sourcePoint" />
            <mxPoint x="55" as="targetPoint" />
          </mxGeometry>
        </mxCell>
        <mxCell id="dpyUN3_mg6OHSvx2SakS-39" value="" style="endArrow=classic;html=1;rounded=0;strokeWidth=2;" edge="1" parent="dpyUN3_mg6OHSvx2SakS-38">
          <mxGeometry width="50" height="50" relative="1" as="geometry">
            <mxPoint x="20" y="60" as="sourcePoint" />
            <mxPoint x="50" y="-20" as="targetPoint" />
          </mxGeometry>
        </mxCell>
        <mxCell id="dpyUN3_mg6OHSvx2SakS-50" value="" style="group" vertex="1" connectable="0" parent="1">
          <mxGeometry x="650" y="181.5" width="80" height="80" as="geometry" />
        </mxCell>
        <mxCell id="dpyUN3_mg6OHSvx2SakS-51" value="" style="whiteSpace=wrap;html=1;aspect=fixed;strokeWidth=2;" vertex="1" parent="dpyUN3_mg6OHSvx2SakS-50">
          <mxGeometry width="76.26666666666667" height="76.26666666666667" as="geometry" />
        </mxCell>
        <mxCell id="dpyUN3_mg6OHSvx2SakS-52" value="" style="triangle;whiteSpace=wrap;html=1;strokeWidth=2;fillColor=#fa6800;fontColor=#000000;strokeColor=#C73500;" vertex="1" parent="dpyUN3_mg6OHSvx2SakS-50">
          <mxGeometry x="15" y="15.000000000000002" width="50" height="50.00000000000001" as="geometry" />
        </mxCell>
        <mxCell id="dpyUN3_mg6OHSvx2SakS-58" value="" style="whiteSpace=wrap;html=1;aspect=fixed;strokeWidth=2;" vertex="1" parent="1">
          <mxGeometry x="930" y="180" width="80" height="80" as="geometry" />
        </mxCell>
        <mxCell id="dpyUN3_mg6OHSvx2SakS-59" value="" style="endArrow=none;html=1;rounded=0;strokeWidth=2;exitX=0;exitY=0.25;exitDx=0;exitDy=0;dashed=1;" edge="1" parent="1" source="dpyUN3_mg6OHSvx2SakS-58">
          <mxGeometry width="50" height="50" relative="1" as="geometry">
            <mxPoint x="940" y="250" as="sourcePoint" />
            <mxPoint x="970" y="200" as="targetPoint" />
          </mxGeometry>
        </mxCell>
        <mxCell id="dpyUN3_mg6OHSvx2SakS-60" value="" style="group" vertex="1" connectable="0" parent="1">
          <mxGeometry x="790" y="180" width="80" height="80" as="geometry" />
        </mxCell>
        <mxCell id="dpyUN3_mg6OHSvx2SakS-53" value="" style="whiteSpace=wrap;html=1;aspect=fixed;strokeWidth=2;" vertex="1" parent="dpyUN3_mg6OHSvx2SakS-60">
          <mxGeometry width="80" height="80" as="geometry" />
        </mxCell>
        <mxCell id="dpyUN3_mg6OHSvx2SakS-54" value="" style="triangle;whiteSpace=wrap;html=1;strokeWidth=2;fillColor=#6d8764;fontColor=#ffffff;strokeColor=#3A5431;" vertex="1" parent="dpyUN3_mg6OHSvx2SakS-60">
          <mxGeometry x="10" y="15" width="60" height="53" as="geometry" />
        </mxCell>
        <mxCell id="dpyUN3_mg6OHSvx2SakS-56" value="" style="rounded=0;whiteSpace=wrap;html=1;fillColor=#6d8764;fontColor=#ffffff;strokeColor=#3A5431;" vertex="1" parent="dpyUN3_mg6OHSvx2SakS-60">
          <mxGeometry x="60" y="11.5" width="10" height="60" as="geometry" />
        </mxCell>
        <mxCell id="dpyUN3_mg6OHSvx2SakS-61" value="" style="endArrow=none;html=1;rounded=0;strokeWidth=2;dashed=1;entryX=0.75;entryY=1;entryDx=0;entryDy=0;" edge="1" parent="1" target="dpyUN3_mg6OHSvx2SakS-58">
          <mxGeometry width="50" height="50" relative="1" as="geometry">
            <mxPoint x="970" y="200" as="sourcePoint" />
            <mxPoint x="980" y="210" as="targetPoint" />
          </mxGeometry>
        </mxCell>
        <mxCell id="dpyUN3_mg6OHSvx2SakS-63" value="&lt;font style=&quot;font-size: 14px;&quot;&gt;$$\textbf{Envelope Detection}$$&lt;/font&gt;" style="text;html=1;align=center;verticalAlign=middle;whiteSpace=wrap;rounded=0;" vertex="1" parent="1">
          <mxGeometry x="737.5" y="120" width="185" height="30" as="geometry" />
        </mxCell>
        <mxCell id="dpyUN3_mg6OHSvx2SakS-68" style="edgeStyle=orthogonalEdgeStyle;rounded=0;orthogonalLoop=1;jettySize=auto;html=1;strokeWidth=2;" edge="1" parent="1" target="dpyUN3_mg6OHSvx2SakS-65">
          <mxGeometry relative="1" as="geometry">
            <mxPoint x="730" y="389.9999999999998" as="sourcePoint" />
            <Array as="points">
              <mxPoint x="1175" y="390" />
            </Array>
          </mxGeometry>
        </mxCell>
        <mxCell id="dpyUN3_mg6OHSvx2SakS-69" value="" style="group" vertex="1" connectable="0" parent="1">
          <mxGeometry x="1120" y="190" width="110" height="100" as="geometry" />
        </mxCell>
        <mxCell id="dpyUN3_mg6OHSvx2SakS-65" value="" style="verticalLabelPosition=bottom;html=1;verticalAlign=top;align=center;strokeColor=none;fillColor=#00BEF2;shape=mxgraph.azure.computer;pointerEvents=1;" vertex="1" parent="dpyUN3_mg6OHSvx2SakS-69">
          <mxGeometry width="110" height="100" as="geometry" />
        </mxCell>
        <mxCell id="dpyUN3_mg6OHSvx2SakS-66" value="" style="pointerEvents=1;verticalLabelPosition=bottom;shadow=0;dashed=0;align=center;html=1;verticalAlign=top;shape=mxgraph.electrical.waveforms.sine_wave;strokeWidth=2;fillColor=#0050ef;fontColor=#ffffff;strokeColor=#001DBC;" vertex="1" parent="dpyUN3_mg6OHSvx2SakS-69">
          <mxGeometry x="25" y="20" width="60" height="50" as="geometry" />
        </mxCell>
        <mxCell id="dpyUN3_mg6OHSvx2SakS-70" style="edgeStyle=orthogonalEdgeStyle;rounded=0;orthogonalLoop=1;jettySize=auto;html=1;strokeWidth=2;" edge="1" parent="1">
          <mxGeometry relative="1" as="geometry">
            <mxPoint x="580" y="220" as="sourcePoint" />
            <mxPoint x="640" y="221" as="targetPoint" />
          </mxGeometry>
        </mxCell>
        <mxCell id="dpyUN3_mg6OHSvx2SakS-72" style="edgeStyle=orthogonalEdgeStyle;rounded=0;orthogonalLoop=1;jettySize=auto;html=1;exitX=1;exitY=0.5;exitDx=0;exitDy=0;entryX=0;entryY=0.5;entryDx=0;entryDy=0;strokeWidth=2;dashed=1;" edge="1" parent="1" source="dpyUN3_mg6OHSvx2SakS-51" target="dpyUN3_mg6OHSvx2SakS-53">
          <mxGeometry relative="1" as="geometry" />
        </mxCell>
        <mxCell id="dpyUN3_mg6OHSvx2SakS-73" style="edgeStyle=orthogonalEdgeStyle;rounded=0;orthogonalLoop=1;jettySize=auto;html=1;exitX=1;exitY=0.5;exitDx=0;exitDy=0;entryX=0;entryY=0.5;entryDx=0;entryDy=0;strokeWidth=2;dashed=1;" edge="1" parent="1" source="dpyUN3_mg6OHSvx2SakS-53" target="dpyUN3_mg6OHSvx2SakS-58">
          <mxGeometry relative="1" as="geometry" />
        </mxCell>
        <mxCell id="dpyUN3_mg6OHSvx2SakS-76" style="edgeStyle=orthogonalEdgeStyle;rounded=0;orthogonalLoop=1;jettySize=auto;html=1;exitX=1;exitY=0.5;exitDx=0;exitDy=0;strokeWidth=2;" edge="1" parent="1" source="dpyUN3_mg6OHSvx2SakS-62">
          <mxGeometry relative="1" as="geometry">
            <mxPoint x="1127" y="230" as="targetPoint" />
            <Array as="points">
              <mxPoint x="1127" y="230" />
            </Array>
          </mxGeometry>
        </mxCell>
        <mxCell id="dpyUN3_mg6OHSvx2SakS-78" style="edgeStyle=orthogonalEdgeStyle;rounded=0;orthogonalLoop=1;jettySize=auto;html=1;entryX=1;entryY=0.25;entryDx=0;entryDy=0;exitX=1;exitY=0.5;exitDx=0;exitDy=0;dashed=1;" edge="1" parent="1" source="dpyUN3_mg6OHSvx2SakS-20" target="dpyUN3_mg6OHSvx2SakS-25">
          <mxGeometry relative="1" as="geometry">
            <Array as="points">
              <mxPoint x="560" y="220" />
              <mxPoint x="560" y="222" />
            </Array>
          </mxGeometry>
        </mxCell>
        <mxCell id="dpyUN3_mg6OHSvx2SakS-79" value="&lt;font style=&quot;font-size: 14px;&quot;&gt;$$\text{Sweep Generator}$$&lt;/font&gt;" style="text;html=1;align=center;verticalAlign=middle;whiteSpace=wrap;rounded=0;" vertex="1" parent="1">
          <mxGeometry x="607.5" y="440" width="165" height="30" as="geometry" />
        </mxCell>
        <mxCell id="dpyUN3_mg6OHSvx2SakS-80" value="&lt;font style=&quot;font-size: 14px;&quot;&gt;$$\text{Local Oscillator}$$&lt;/font&gt;" style="text;html=1;align=center;verticalAlign=middle;whiteSpace=wrap;rounded=0;" vertex="1" parent="1">
          <mxGeometry x="220" y="350" width="150" height="30" as="geometry" />
        </mxCell>
        <mxCell id="dpyUN3_mg6OHSvx2SakS-81" value="&lt;font style=&quot;font-size: 14px;&quot;&gt;$$\text{IF Amplifier}$$&lt;/font&gt;" style="text;html=1;align=center;verticalAlign=middle;whiteSpace=wrap;rounded=0;" vertex="1" parent="1">
          <mxGeometry x="287.5" y="261.5" width="165" height="30" as="geometry" />
        </mxCell>
        <mxCell id="dpyUN3_mg6OHSvx2SakS-82" value="&lt;font style=&quot;font-size: 14px;&quot;&gt;$$\text{Mixer}$$&lt;/font&gt;" style="text;html=1;align=center;verticalAlign=middle;whiteSpace=wrap;rounded=0;" vertex="1" parent="1">
          <mxGeometry x="117.5" y="160" width="165" height="30" as="geometry" />
        </mxCell>
        <mxCell id="dpyUN3_mg6OHSvx2SakS-83" value="&lt;font style=&quot;font-size: 14px;&quot;&gt;$$\text{Display}$$&lt;/font&gt;" style="text;html=1;align=center;verticalAlign=middle;whiteSpace=wrap;rounded=0;" vertex="1" parent="1">
          <mxGeometry x="1080" y="160" width="165" height="30" as="geometry" />
        </mxCell>
        <mxCell id="dpyUN3_mg6OHSvx2SakS-84" value="&lt;font style=&quot;font-size: 14px;&quot;&gt;$$\text{IF Filter}$$&lt;/font&gt;" style="text;html=1;align=center;verticalAlign=middle;whiteSpace=wrap;rounded=0;" vertex="1" parent="1">
          <mxGeometry x="465" y="261.5" width="90" height="30" as="geometry" />
        </mxCell>
        <mxCell id="dpyUN3_mg6OHSvx2SakS-85" value="&lt;font style=&quot;font-size: 14px;&quot;&gt;$$\text{Logarithmic}$$&lt;/font&gt;" style="text;html=1;align=center;verticalAlign=middle;whiteSpace=wrap;rounded=0;" vertex="1" parent="1">
          <mxGeometry x="645" y="260" width="90" height="30" as="geometry" />
        </mxCell>
        <mxCell id="dpyUN3_mg6OHSvx2SakS-86" value="&lt;font style=&quot;font-size: 14px;&quot;&gt;$$\text{Amplifier}$$&lt;/font&gt;" style="text;html=1;align=center;verticalAlign=middle;whiteSpace=wrap;rounded=0;" vertex="1" parent="1">
          <mxGeometry x="645" y="280" width="90" height="30" as="geometry" />
        </mxCell>
        <mxCell id="dpyUN3_mg6OHSvx2SakS-87" value="&lt;font style=&quot;font-size: 14px;&quot;&gt;$$\text{Envelope Detector}$$&lt;/font&gt;" style="text;html=1;align=center;verticalAlign=middle;whiteSpace=wrap;rounded=0;" vertex="1" parent="1">
          <mxGeometry x="785" y="261.5" width="90" height="30" as="geometry" />
        </mxCell>
        <mxCell id="dpyUN3_mg6OHSvx2SakS-88" value="&lt;font style=&quot;font-size: 14px;&quot;&gt;$$\text{Video}$$&lt;/font&gt;" style="text;html=1;align=center;verticalAlign=middle;whiteSpace=wrap;rounded=0;" vertex="1" parent="1">
          <mxGeometry x="925" y="264.25" width="90" height="21.5" as="geometry" />
        </mxCell>
        <mxCell id="dpyUN3_mg6OHSvx2SakS-89" value="&lt;font style=&quot;font-size: 14px;&quot;&gt;$$\text{Filter}$$&lt;/font&gt;" style="text;html=1;align=center;verticalAlign=middle;whiteSpace=wrap;rounded=0;" vertex="1" parent="1">
          <mxGeometry x="925" y="290" width="90" height="20" as="geometry" />
        </mxCell>
      </root>
    </mxGraphModel>
  </diagram>
</mxfile>
